# xmcd
#
# Track frame offsets:
#	150
#	16636
#	36523
#	54398
#	68337
#	84830
#	99916
#	118430
#	139181
#	156486
#	172680
#	188145
#	201975
#	215000
#	232106
#	245816
#	257039
#
# Disc length: 3598 seconds
#
# Revision: 0
# Processed by: cddbd v1.5.2PL0 Copyright (c) Steve Scherf et al.
# Submitted via: dBpowerAMP V4.0
#
DISCID=ed0e0c11
DTITLE=Varios - Románticos inolvidables -Disco 2
DYEAR=1900
DGENRE=
TTITLE0=Otro ocupa mi lugar
TTITLE1=¿quién eres tú?
TTITLE2=insoportablemente bella
TTITLE3=mi problema
TTITLE4=Santa lucia
TTITLE5=Corazón Mágico
TTITLE6=Para que no me olvides
TTITLE7=El día que me quieras
TTITLE8=Candilejas
TTITLE9=La otra parte de ti
TTITLE10=Todo por nada
TTITLE11=Siempre te recordaré
TTITLE12=Soy un truhán , soy un señor
TTITLE13=Mi corazón es un gitano
TTITLE14=La ladrona
TTITLE15=Wendoline
TTITLE16=Te quiero, te quiero
EXTD=
EXTT0=
EXTT1=
EXTT2=
EXTT3=
EXTT4=
EXTT5=
EXTT6=
EXTT7=
EXTT8=
EXTT9=
EXTT10=
EXTT11=
EXTT12=
EXTT13=
EXTT14=
EXTT15=
EXTT16=
PLAYORDER=
